HIERARCHY
ROOT Hips
{
	OFFSET 0.000000 0.000000 0.000000
	CHANNELS 6 Xposition Yposition Zposition Xrotation Yrotation Zrotation
	JOINT Chest
	{
		OFFSET 0.000000 0.009282 11.569106
		CHANNELS 6 Xposition Yposition Zposition Xrotation Yrotation Zrotation
		JOINT Chest2
		{
			OFFSET 0.000000 -0.016863 9.269641
			CHANNELS 6 Xposition Yposition Zposition Xrotation Yrotation Zrotation
			JOINT Chest3
			{
				OFFSET 0.000000 0.000000 8.374491
				CHANNELS 6 Xposition Yposition Zposition Xrotation Yrotation Zrotation
				JOINT Chest4
				{
					OFFSET 0.000000 0.000000 8.374493
					CHANNELS 6 Xposition Yposition Zposition Xrotation Yrotation Zrotation
					JOINT Neck
					{
						OFFSET 0.000000 -0.000001 12.152554
						CHANNELS 6 Xposition Yposition Zposition Xrotation Yrotation Zrotation
						JOINT Head
						{
							OFFSET 0.000000 -0.040100 7.802319
							CHANNELS 6 Xposition Yposition Zposition Xrotation Yrotation Zrotation
							End Site
							{
								OFFSET 0.000000 -0.020946 14.853096
							}
						}
					}
					JOINT RightCollar
					{
						OFFSET -2.894404 0.000000 6.791374
						CHANNELS 6 Xposition Yposition Zposition Xrotation Yrotation Zrotation
						JOINT RightShoulder
						{
							OFFSET -13.574684 0.000000 0.000000
							CHANNELS 6 Xposition Yposition Zposition Xrotation Yrotation Zrotation
							JOINT RightElbow
							{
								OFFSET -23.923903 0.000000 0.000000
								CHANNELS 6 Xposition Yposition Zposition Xrotation Yrotation Zrotation
								JOINT RightWrist
								{
									OFFSET -19.846718 -0.012765 0.000000
									CHANNELS 6 Xposition Yposition Zposition Xrotation Yrotation Zrotation
									End Site
									{
										OFFSET -14.973145 0.000000 0.000000
									}
								}
							}
						}
					}
					JOINT LeftCollar
					{
						OFFSET 2.894404 0.000000 6.791374
						CHANNELS 6 Xposition Yposition Zposition Xrotation Yrotation Zrotation
						JOINT LeftShoulder
						{
							OFFSET 13.574684 0.000000 0.000000
							CHANNELS 6 Xposition Yposition Zposition Xrotation Yrotation Zrotation
							JOINT LeftElbow
							{
								OFFSET 23.923903 0.000000 0.000000
								CHANNELS 6 Xposition Yposition Zposition Xrotation Yrotation Zrotation
								JOINT LeftWrist
								{
									OFFSET 19.846718 -0.012765 0.000000
									CHANNELS 6 Xposition Yposition Zposition Xrotation Yrotation Zrotation
									End Site
									{
										OFFSET 14.973145 0.000000 0.000000
									}
								}
							}
						}
					}
				}
			}
		}
	}
	JOINT RightHip
	{
		OFFSET -9.469263 -0.004642 0.045487
		CHANNELS 6 Xposition Yposition Zposition Xrotation Yrotation Zrotation
		JOINT RightKnee
		{
			OFFSET 0.000000 -0.002666 -40.478676
			CHANNELS 6 Xposition Yposition Zposition Xrotation Yrotation Zrotation
			JOINT RightAnkle
			{
				OFFSET 0.000000 -0.049110 -35.224068
				CHANNELS 6 Xposition Yposition Zposition Xrotation Yrotation Zrotation
				JOINT RightToe
				{
					OFFSET 0.000000 -12.539530 -6.151390
					CHANNELS 6 Xposition Yposition Zposition Xrotation Yrotation Zrotation
					End Site
					{
						OFFSET 0.000000 -5.044995 -1.291870
					}
				}
			}
		}
	}
	JOINT LeftHip
	{
		OFFSET 9.469263 -0.004642 0.045487
		CHANNELS 6 Xposition Yposition Zposition Xrotation Yrotation Zrotation
		JOINT LeftKnee
		{
			OFFSET 0.000000 -0.002666 -40.478676
			CHANNELS 6 Xposition Yposition Zposition Xrotation Yrotation Zrotation
			JOINT LeftAnkle
			{
				OFFSET 0.000000 -0.049110 -35.224068
				CHANNELS 6 Xposition Yposition Zposition Xrotation Yrotation Zrotation
				JOINT LeftToe
				{
					OFFSET 0.000000 -12.539530 -6.151390
					CHANNELS 6 Xposition Yposition Zposition Xrotation Yrotation Zrotation
					End Site
					{
						OFFSET 0.000000 -5.044995 -1.291870
					}
				}
			}
		}
	}
}
MOTION
Frames: 4
Frame Time: 0.016667
3.828894 -9.032097 82.493973 -0.702060 3.110922 -104.242579 -0.000000 0.009282 11.569103 5.177389 1.342319 0.352267 0.000000 -0.016864 9.269645 2.302429 0.624847 0.142824 0.000001 -0.000001 8.374485 2.302431 0.624847 0.142821 -0.000001 -0.000000 8.374493 1.726952 0.468105 0.109474 -0.000001 -0.000003 12.152557 15.554251 -1.181963 -1.941912 -0.000001 -0.040102 7.802323 -7.310285 -1.436718 -3.968933 -2.894405 -0.000001 6.791369 -8.606379 -9.683123 -1.067000 -13.574680 0.000000 0.000004 20.149463 -40.636497 -4.128805 -23.923895 0.000001 -0.000009 69.400200 18.012729 67.330147 -19.846720 -0.012767 0.000006 -60.005459 44.879742 86.204794 2.894404 -0.000002 6.791366 -4.798968 8.898956 -4.591644 13.574689 -0.000000 0.000005 17.899371 39.456862 10.349482 23.923901 -0.000003 0.000010 62.553393 -8.882504 -63.428408 19.846716 -0.012771 0.000000 -31.666406 -32.811918 -86.124048 -9.469264 -0.004642 0.045485 2.341827 -5.435700 -14.060384 0.000200 -0.002675 -40.478569 1.843867 -4.152297 -4.291078 0.000157 -0.049132 -35.224323 -5.249496 4.570146 -3.378562 -0.000014 -12.539533 -6.151366 0.244497 0.563873 0.311290 9.469261 -0.004643 0.045491 0.596062 -3.018931 15.818551 -0.000927 -0.003301 -40.477226 33.029487 6.552504 20.458616 -0.000607 -0.050103 -35.222092 55.356583 -22.913104 14.302872 -0.000949 -12.541663 -6.153824 -87.433989 24.006004 22.922089 
3.766429 -9.028025 82.480751 -0.627231 3.080600 -104.349315 -0.000000 0.009282 11.569105 5.156581 1.286721 0.407842 0.000000 -0.016864 9.269637 2.294256 0.615030 0.149490 0.000002 0.000001 8.374500 2.294257 0.615030 0.149489 0.000001 -0.000002 8.374490 1.720828 0.460718 0.114429 0.000001 -0.000000 12.152556 15.558759 -1.167975 -1.923454 -0.000001 -0.040098 7.802326 -7.301617 -1.418179 -3.930143 -2.894404 0.000000 6.791373 -8.615835 -9.699721 -1.062403 -13.574685 -0.000000 0.000003 20.164778 -40.610304 -4.141673 -23.923899 -0.000006 -0.000015 69.402413 18.006602 67.352250 -19.846725 -0.012764 0.000002 -60.044248 44.866898 86.237381 2.894404 0.000000 6.791374 -4.806004 8.904593 -4.594541 13.574681 -0.000000 -0.000004 17.932549 39.469969 10.330612 23.923908 0.000001 0.000004 62.539739 -8.880692 -63.407638 19.846725 -0.012769 0.000002 -31.644833 -32.806508 -86.109820 -9.469263 -0.004642 0.045481 2.334929 -5.424995 -14.175273 0.000213 -0.002677 -40.478573 1.995968 -4.216015 -4.533405 0.000137 -0.049130 -35.224339 -5.491484 4.148359 -2.969837 -0.000013 -12.539533 -6.151365 0.282877 0.712112 0.281450 9.469263 -0.004642 0.045489 0.518025 -3.136406 15.784956 -0.000931 -0.003304 -40.477211 33.220442 6.544174 20.533152 -0.000600 -0.050108 -35.222069 55.534229 -22.722499 14.098456 -0.000946 -12.541670 -6.153828 -87.717367 23.793215 22.866200 
3.694327 -9.017179 82.462982 -0.520758 3.041161 -104.440416 -0.000000 0.009282 11.569112 5.134963 1.203200 0.443691 -0.000001 -0.016863 9.269637 2.288928 0.604548 0.158434 0.000001 0.000001 8.374493 2.288928 0.604548 0.158434 -0.000001 -0.000000 8.374487 1.716838 0.452824 0.121092 0.000000 0.000000 12.152559 15.568479 -1.160197 -1.904544 0.000001 -0.040097 7.802316 -7.283484 -1.411259 -3.892760 -2.894403 0.000001 6.791384 -8.618529 -9.712147 -1.066448 -13.574680 -0.000000 0.000011 20.185267 -40.575552 -4.131958 -23.923904 0.000004 0.000003 69.405582 17.986323 67.387794 -19.846724 -0.012770 0.000002 -60.079211 44.857144 86.266874 2.894404 -0.000001 6.791382 -4.797399 8.902533 -4.610430 13.574682 -0.000000 -0.000000 17.918144 39.494370 10.340378 23.923899 -0.000003 0.000001 62.516366 -8.903857 -63.385228 19.846706 -0.012769 0.000005 -31.595861 -32.806980 -86.080669 -9.469264 -0.004642 0.045484 2.348693 -5.456096 -14.408588 0.000223 -0.002677 -40.478561 2.133720 -4.256769 -4.743362 0.000116 -0.049131 -35.224346 -5.749082 3.682053 -2.509579 -0.000010 -12.539533 -6.151367 0.329731 0.848393 0.249845 9.469262 -0.004642 0.045485 0.394180 -3.297504 15.677581 -0.000933 -0.003312 -40.477192 33.490122 6.526687 20.533589 -0.000595 -0.050128 -35.222057 55.766968 -22.435126 13.895343 -0.000948 -12.541703 -6.153838 -88.072359 23.531841 22.792249 
3.605684 -8.996692 82.441109 -0.401416 3.016775 -104.496034 0.000000 0.009282 11.569102 5.132015 1.114572 0.438478 0.000001 -0.016864 9.269634 2.287019 0.593953 0.169929 0.000001 -0.000000 8.374492 2.287021 0.593953 0.169928 -0.000001 -0.000004 8.374495 1.715415 0.444835 0.129671 0.000001 -0.000004 12.152550 15.583971 -1.159369 -1.884638 0.000000 -0.040101 7.802316 -7.254891 -1.417505 -3.856052 -2.894403 -0.000000 6.791373 -8.621369 -9.717836 -1.070509 -13.574685 -0.000000 -0.000009 20.205296 -40.544911 -4.121425 -23.923889 0.000002 0.000005 69.407508 17.955587 67.436076 -19.846718 -0.012769 -0.000002 -60.112263 44.858545 86.290602 2.894405 -0.000001 6.791375 -4.800937 8.889099 -4.623034 13.574681 -0.000001 -0.000004 17.882018 39.527988 10.361428 23.923895 -0.000004 0.000014 62.496893 -8.945310 -63.362367 19.846718 -0.012771 -0.000005 -31.519670 -32.809213 -86.021506 -9.469264 -0.004641 0.045487 2.412167 -5.520859 -14.769212 0.000230 -0.002678 -40.478554 2.235065 -4.265896 -4.929308 0.000093 -0.049132 -35.224350 -5.997104 3.167902 -1.990789 -0.000009 -12.539532 -6.151361 0.368796 0.981198 0.198858 9.469261 -0.004642 0.045484 0.241553 -3.483618 15.480378 -0.000927 -0.003319 -40.477203 33.834551 6.508101 20.477052 -0.000589 -0.050136 -35.222054 56.132831 -22.022215 13.677775 -0.000944 -12.541728 -6.153843 -88.566599 23.185822 22.677915 
